<svg 
  xmlns="http://www.w3.org/2000/svg"
  xmlns:xlink="http://www.w3.org/1999/xlink"
  version="1.1" 
	viewport="0 0 720 490"
   >
	 
	 <!-- Vim 'V' -->
	 <g transform="translate(283,23)">
		 <g transform="scale(3,3)"  
			 stroke-opacity="0.7">
			<line x1="0" y1="100" x2="0" y2="0" stroke="#333" stroke-width="23" stroke-linecap="round" />
			<line x1="0" y1="100" x2="100" y2="0" stroke="#333" stroke-width="23" stroke-linecap="round" />
		</g>
	</g>

  <g
     id="arduino-logo"
     stroke-width="60"
		 stroke="rgb(0, 151, 156)"
		 stroke-opacity="0.5"
		 fill="none"
		 transform="translate(0,0)"
		 >
    <path
       d=" M 174 30  a 10.50 10.10 0 0 0 0 280  c 190 10 170 -280 370 -280  a 10.50 10.10 0 0 1 0 280  c -190 10 -170 -280 -370 -280 "
       id="loop-path" />
  <g
     id="plus"
     transform="translate(0,10)"
     style="fill:#00979c;stroke:#00979c;stroke-width:20;">
      <path
         d="m 528.06885,194.67432 0,-32.78028 -32.53565,0 0,-13.69922 32.53565,0 0,-32.53564 13.8623,0 0,32.53564 32.53565,0 0,13.69922 -32.53565,0 0,32.78028 z" 
				 />
		</g>

  <g
     id="minus"
     transform="translate(-365.79452,0.52773446)"
     style="fill:#00979c;stroke:#00979c;stroke-width:20;">
    <g
       transform="scale(1.5645974,0.63914206)"
       >
      <path
         d="m 321.41756,266.30877 0,-17.43 53.25297,0 0,17.43 z"
         style="stroke-width:23.61903381"
         id="minus-path" />
			 </g>
		 </g>
	</g>


</svg>
